<svg xmlns="http://www.w3.org/2000/svg" viewBox="0 0 376 202"><title>Asset 57</title><g id="Layer_2" data-name="Layer 2"><g id="Partner"><rect y="2.71" width="24.47" height="199.29"/><rect x="32.62" y="2.71" width="17.94" height="199.29"/><rect x="59.21" y="2.71" width="9.79" height="199.29"/><rect x="74.95" y="2.71" width="3.26" height="199.29"/><rect x="86.77" y="2.71" width="3.26" height="199.29"/><rect x="107.35" y="2.71" width="17.94" height="199.29"/><rect x="140.29" y="2.71" width="9.79" height="199.29"/><rect x="130.62" y="2.71" width="3.26" height="199.29"/><rect x="161.49" y="2.71" width="3.26" height="199.29"/><rect x="169.65" y="1.85" width="9.79" height="199.29"/><rect x="184.33" y="1.85" width="3.26" height="199.29"/><rect x="190.85" y="1.85" width="3.26" height="199.29"/><rect x="200.64" y="1.85" width="3.26" height="199.29"/><rect x="207.17" y="1.85" width="3.26" height="199.29"/><rect x="241.42" width="17.94" height="199.29"/><rect x="228.16" y="0.13" width="3.26" height="199.29"/><rect x="234.69" y="0.13" width="3.26" height="199.29"/><rect x="278.35" y="0.13" width="9.79" height="199.29"/><rect x="294.09" y="0.13" width="3.26" height="199.29"/><rect x="305.9" y="0.13" width="3.26" height="199.29"/><rect x="329.66" y="0.13" width="17.94" height="199.29"/><rect x="351.87" y="0.13" width="3.26" height="199.29"/><rect x="358.38" y="0.13" width="3.26" height="199.29"/><rect x="366.21" y="0.13" width="9.79" height="199.29"/></g></g></svg>