<svg xmlns="http://www.w3.org/2000/svg" viewBox="0 0 40 40"><defs><style>.cls-1{fill:#5985c4;}.cls-2{fill:none;}</style></defs><title>garpu</title><g id="Layer_2" data-name="Layer 2"><g id="NavBar"><g id="surface1"><path class="cls-1" d="M12.91.7v9.5a1,1,0,0,1-.95,1,1,1,0,0,1-1-1V.85a21.91,21.91,0,0,0-2.42.36s-.65,7.36-.65,11.7c0,4.83,4.82,4.86,4.82,6.79,0,1.61-1.6,11.56-1.6,16.38a3.22,3.22,0,1,0,6.43,0C17.59,31.26,16,21.27,16,19.5s4.82-1.76,4.82-6.59c0-2.73-.5-11.7-.5-11.7A21,21,0,0,0,17.74.85v9.5a1,1,0,0,1-1,1,.91.91,0,0,1-1-1V.7ZM32.06.7c-3.22,0-8,9.65-8,18.5,0,0,4,2.89,4,5.62,0,5-2.41,7.72-2.41,11.26a3.22,3.22,0,1,0,6.43,0Z"/></g><rect class="cls-2" width="40" height="40"/></g></g></svg>