<svg xmlns="http://www.w3.org/2000/svg" viewBox="0 0 40 40"><defs><style>.cls-1{fill:#5985c4;}.cls-2{fill:none;}</style></defs><title>tameng</title><g id="Layer_2" data-name="Layer 2"><g id="NavBar"><path class="cls-1" d="M36.24,7.88a1.64,1.64,0,0,0-1.18-.56c-3.51-.09-8-3.84-10.88-5.31A17.61,17.61,0,0,0,20.27.35L20,.33l-.27,0A17.29,17.29,0,0,0,15.82,2C12.89,3.48,8.45,7.23,4.94,7.32a1.64,1.64,0,0,0-1.18.56,1.81,1.81,0,0,0-.45,1.28C4.07,24.47,9.56,34,19.19,39.45a1.6,1.6,0,0,0,1.62,0c9.63-5.5,15.12-15,15.88-30.29A1.81,1.81,0,0,0,36.24,7.88Z"/><rect class="cls-2" width="40" height="40"/></g></g></svg>