<svg xmlns="http://www.w3.org/2000/svg" viewBox="0 0 47.83 316.69"><defs><style>.cls-1,.cls-4{fill:#fff;}.cls-1,.cls-3{stroke:#000;stroke-width:0.5px;}.cls-1,.cls-3,.cls-5{stroke-miterlimit:10;}.cls-2,.cls-3{fill:#29abe2;}.cls-5{fill:none;stroke:#666;stroke-width:3px;}</style></defs><title>Asset 58</title><g id="Layer_2" data-name="Layer 2"><g id="NavBar"><circle class="cls-1" cx="23.91" cy="23.91" r="23.66"/><rect class="cls-2" x="10.1" y="34.29" width="27.51" height="2.28" rx="1.03" ry="1.03"/><path class="cls-2" d="M24.17,20.26l-1.48,8.19s-.27,1.14.27.89l.91-.43a3,3,0,0,0,1.43-1.69l4.32-9.52s8.26-3.76,8.1-4.78-3.27-2.08-6.18-.77l-16.2,7.29A1.46,1.46,0,0,1,14,19c-.71-.58-2.18-1.69-2.18-1.69a1.28,1.28,0,0,0-1.63.2s-.27.05,0,.54,2.08,4.58,2.08,4.58S12.68,25.69,24.17,20.26Z"/><path class="cls-2" d="M19.71,16.24l4.13-1.93L18.72,12.8a4.51,4.51,0,0,0-2.23,0l-.92.42s-.58.14.52.83Z"/><circle class="cls-3" cx="23.91" cy="292.77" r="23.66"/><rect class="cls-4" x="10.1" y="304.33" width="27.63" height="2.29" rx="1.03" ry="1.03"/><circle class="cls-4" cx="29.78" cy="296.56" r="1.39"/><path class="cls-4" d="M21.64,292l-6.77,4.9s-1,.63-.43.82l1,.33a3,3,0,0,0,2.21-.23l9.75-3.87s8.6,3,9.19,2.19-.92-3.79-3.93-4.86l-16.8-6a1.47,1.47,0,0,1-.66-1.19c-.11-.92-.39-2.75-.39-2.75a1.29,1.29,0,0,0-1.33-1s-.22-.15-.39.37l-1.69,4.76S9.55,287.91,21.64,292Z"/><path class="cls-4" d="M21.21,286l4.34,1.48L22.9,282.8s-.84-1.33-1.59-1.58l-1-.34s-.52-.3-.19,1Z"/><line class="cls-5" x1="23.58" y1="47.65" x2="23.58" y2="268.65"/></g></g></svg>